<?xml version="1.0" encoding="UTF-8" standalone="no"?>
<svg
   xmlns:dc="http://purl.org/dc/elements/1.1/"
   xmlns:cc="http://creativecommons.org/ns#"
   xmlns:rdf="http://www.w3.org/1999/02/22-rdf-syntax-ns#"
   xmlns:svg="http://www.w3.org/2000/svg"
   xmlns="http://www.w3.org/2000/svg"
   xmlns:sodipodi="http://sodipodi.sourceforge.net/DTD/sodipodi-0.dtd"
   xmlns:inkscape="http://www.inkscape.org/namespaces/inkscape"
   inkscape:version="1.0 (4035a4fb49, 2020-05-01)"
   sodipodi:docname="6.svg"
   viewBox="0 0 288.95395 179.93455"
   height="179.93456"
   width="288.95395"
   xml:space="preserve"
   id="svg2"
   version="1.1"><metadata
     id="metadata8"><rdf:RDF><cc:Work
         rdf:about=""><dc:format>image/svg+xml</dc:format><dc:type
           rdf:resource="http://purl.org/dc/dcmitype/StillImage" /><dc:title></dc:title></cc:Work></rdf:RDF></metadata><defs
     id="defs6" /><sodipodi:namedview
     inkscape:current-layer="g10"
     inkscape:window-maximized="1"
     inkscape:window-y="-9"
     inkscape:window-x="-9"
     inkscape:cy="298.56603"
     inkscape:cx="81.660437"
     inkscape:zoom="0.73940775"
     showgrid="false"
     id="namedview4"
     inkscape:window-height="1001"
     inkscape:window-width="1920"
     inkscape:pageshadow="2"
     inkscape:pageopacity="0"
     guidetolerance="10"
     gridtolerance="10"
     objecttolerance="10"
     borderopacity="1"
     bordercolor="#666666"
     pagecolor="#ffffff" /><g
     transform="matrix(1.3333333,0,0,-1.3333333,-201.77861,997.43051)"
     inkscape:label="test"
     inkscape:groupmode="layer"
     id="g10"><g
       transform="translate(198.75,700.3898)"
       id="g12"><path
         id="path14"
         style="fill:none;stroke:#231200;stroke-width:0.6;stroke-linecap:butt;stroke-linejoin:miter;stroke-miterlimit:10;stroke-dasharray:none;stroke-opacity:1"
         d="M 0,0 25.215,8.859" /></g><g
       transform="translate(223.3257,707.2579)"
       id="g16"><path
         id="path18"
         style="fill:#231200;fill-opacity:1;fill-rule:nonzero;stroke:none"
         d="M 0,0 0.115,1.807 -1.105,3.145 3.174,2.882 Z" /></g><g
       transform="translate(286.25,701.6398)"
       id="g20"><path
         id="path22"
         style="fill:none;stroke:#231200;stroke-width:0.6;stroke-linecap:butt;stroke-linejoin:miter;stroke-miterlimit:10;stroke-dasharray:none;stroke-opacity:1"
         d="M 0,0 6.316,-38.599" /></g><g
       transform="translate(290.7178,664.0192)"
       id="g24"><path
         id="path26"
         style="fill:#231200;fill-opacity:1;fill-rule:nonzero;stroke:none"
         d="M 0,0 1.759,-0.43 3.289,0.538 2.282,-3.629 Z" /></g><g
       transform="translate(260,646.8898)"
       id="g28"><path
         id="path30"
         style="fill:none;stroke:#231200;stroke-width:0.6;stroke-linecap:butt;stroke-linejoin:miter;stroke-miterlimit:10;stroke-dasharray:none;stroke-opacity:1"
         d="M 0,0 -46.337,-6.147" /></g><g
       transform="translate(214.6968,642.5612)"
       id="g32"><path
         id="path34"
         style="fill:#231200;fill-opacity:1;fill-rule:nonzero;stroke:none"
         d="m 0,0 -0.482,-1.745 0.92,-1.559 -4.135,1.133 z" /></g><g
       transform="translate(187.5,654.8898)"
       id="g36"><path
         id="path38"
         style="fill:none;stroke:#231200;stroke-width:0.6;stroke-linecap:butt;stroke-linejoin:miter;stroke-miterlimit:10;stroke-dasharray:none;stroke-opacity:1"
         d="M 0,0 -12.723,4.588" /></g><g
       transform="translate(176.5312,660.6173)"
       id="g40"><path
         id="path42"
         style="fill:#231200;fill-opacity:1;fill-rule:nonzero;stroke:none"
         d="m 0,0 -1.231,-1.328 0.1,-1.807 -3.15,2.907 z" /></g><g
       transform="translate(151.5,645.1398)"
       id="g44"><path
         id="path46"
         style="fill:none;stroke:#231200;stroke-width:0.6;stroke-linecap:butt;stroke-linejoin:miter;stroke-miterlimit:10;stroke-dasharray:none;stroke-opacity:1"
         d="M 0,0 36.513,-24.263" /></g><g
       transform="translate(186.0376,620.1881)"
       id="g48"><path
         id="path50"
         style="fill:#231200;fill-opacity:1;fill-rule:nonzero;stroke:none"
         d="m 0,0 1.512,0.996 0.333,1.78 2.367,-3.574 z" /></g><g
       transform="translate(264,613.1398)"
       id="g52"><path
         id="path54"
         style="fill:none;stroke:#231200;stroke-width:0.6;stroke-linecap:butt;stroke-linejoin:miter;stroke-miterlimit:10;stroke-dasharray:none;stroke-opacity:1"
         d="M 0,0 1.09,18.318" /></g><g
       transform="translate(266.6787,630.0973)"
       id="g56"><path
         id="path58"
         style="fill:#231200;fill-opacity:1;fill-rule:nonzero;stroke:none"
         d="M 0,0 -1.622,0.806 -3.327,0.198 -1.429,4.042 Z" /></g><g
       transform="translate(318.5,727.8898)"
       id="g60"><path
         id="path62"
         style="fill:none;stroke:#231200;stroke-width:0.6;stroke-linecap:butt;stroke-linejoin:miter;stroke-miterlimit:10;stroke-dasharray:none;stroke-opacity:1"
         d="M 0,0 14.215,-20.42" /></g><g
       transform="translate(330.625,707.5548)"
       id="g64"><path
         id="path66"
         style="fill:#231200;fill-opacity:1;fill-rule:nonzero;stroke:none"
         d="M 0,0 1.772,0.371 2.735,1.904 3.625,-2.29 Z" /></g><g
       transform="translate(340.75,664.3898)"
       id="g68"><path
         id="path70"
         style="fill:none;stroke:#231200;stroke-width:0.6;stroke-linecap:butt;stroke-linejoin:miter;stroke-miterlimit:10;stroke-dasharray:none;stroke-opacity:1"
         d="M 0,0 12.308,-5.632" /></g><g
       transform="translate(351.2148,657.7682)"
       id="g72"><path
         id="path74"
         style="fill:#231200;fill-opacity:1;fill-rule:nonzero;stroke:none"
         d="m 0,0 1.337,1.221 0.05,1.81 2.898,-3.159 z" /></g><g
       transform="translate(367.75,695.8898)"
       id="g76"><path
         id="path78"
         style="fill:none;stroke:#231200;stroke-width:0.6;stroke-linecap:butt;stroke-linejoin:miter;stroke-miterlimit:10;stroke-dasharray:none;stroke-opacity:1"
         d="M 0,0 -1.836,30.069" /></g><g
       transform="translate(367.6543,724.7985)"
       id="g80"><path
         id="path82"
         style="fill:#231200;fill-opacity:1;fill-rule:nonzero;stroke:none"
         d="m 0,0 -1.707,0.605 -1.62,-0.808 1.423,4.044 z" /></g><g
       transform="translate(351.25,743.6398)"
       id="g84"><path
         id="path86"
         style="fill:none;stroke:#231200;stroke-width:0.6;stroke-linecap:butt;stroke-linejoin:miter;stroke-miterlimit:10;stroke-dasharray:none;stroke-opacity:1"
         d="M 0,0 -16.607,3.02" /></g><g
       transform="translate(336.1846,748.0729)"
       id="g88"><path
         id="path90"
         style="fill:#231200;fill-opacity:1;fill-rule:nonzero;stroke:none"
         d="m 0,0 -0.994,-1.513 0.398,-1.766 -3.589,2.346 z" /></g><text
       id="text98"
       style="font-variant:normal;font-weight:normal;font-stretch:normal;font-size:11px;font-family:'Myriad Pro';-inkscape-font-specification:MyriadPro-Regular;writing-mode:lr-tb;fill:#231200;fill-opacity:1;fill-rule:nonzero;stroke:none"
       transform="matrix(1,0,0,-1,183.75,710.1396)"><tspan
         id="tspan92"
         sodipodi:role="line"
         y="0"
         x="0 5.6430001 8.8549995">$f$</tspan><tspan
         id="tspan94"
         sodipodi:role="line"
         y="-11"
         x="102.498 108.141 111.892 117.0719 121.9999 125.1239 131.2729 134.3969">$\vc{g}$</tspan><tspan
         id="tspan96"
         sodipodi:role="line"
         y="67.749001"
         x="120.252 125.895 129.646 132.858 136.39999 141.702 146.63 149.754 155.397 158.521 161.645 167.28799 170.412 176.05499">$\frac{1}{2}$ </tspan></text></g></svg>
